<svg width="11" height="8" viewBox="0 0 11 8" fill="none" xmlns="http://www.w3.org/2000/svg">
<path fill-rule="evenodd" clip-rule="evenodd" d="M9.5088 0.315799C9.62841 0.196412 9.76595 0.136719 9.92144 0.136719C10.0769 0.136719 10.2145 0.196412 10.3341 0.315799C10.4417 0.423248 10.4956 0.557556 10.4956 0.718729C10.4956 0.879902 10.4417 1.01421 10.3341 1.12166L4.61094 6.87013C4.59898 6.88207 4.58702 6.89401 4.57506 6.90595C4.5631 6.91789 4.55114 6.92983 4.53918 6.94177C4.43153 7.06115 4.29698 7.12085 4.13551 7.12085C3.97404 7.12085 3.83949 7.06115 3.73184 6.94177L0.879241 4.1123C0.771596 4.00485 0.717773 3.87054 0.717773 3.70937C0.717773 3.5482 0.771596 3.41389 0.879241 3.30644C0.998848 3.18705 1.13639 3.12736 1.29188 3.12736C1.44737 3.12736 1.58492 3.18705 1.70452 3.30644L4.12654 5.72402L9.5088 0.315799Z" fill="white"/>
</svg>
