<svg width="25" height="24" viewBox="0 0 25 24" fill="none" xmlns="http://www.w3.org/2000/svg">
<g clip-path="url(#clip0_1_40781)">
<path d="M11.7958 14.9941C11.4329 14.9947 11.0751 14.9085 10.7522 14.7427C10.4294 14.5769 10.1508 14.3364 9.9398 14.0411L6.6458 9.43012C6.54088 9.2679 6.50251 9.07148 6.53866 8.8817C6.57481 8.69192 6.68271 8.52338 6.83993 8.4111C6.99715 8.29882 7.19159 8.25144 7.38283 8.27882C7.57407 8.30621 7.74741 8.40623 7.86681 8.55812L11.1608 13.1691C11.2324 13.2707 11.3276 13.3533 11.4382 13.4099C11.5488 13.4665 11.6716 13.4954 11.7958 13.4941C11.9091 13.4943 12.0211 13.4694 12.1236 13.4211C12.2261 13.3729 12.3167 13.3025 12.3888 13.2151L23.1798 0.263116C23.2426 0.18716 23.3199 0.124386 23.407 0.078414C23.4942 0.0324417 23.5897 0.00417915 23.6878 -0.00474467C23.786 -0.0136685 23.8849 -0.00307716 23.979 0.0264189C24.073 0.055915 24.1603 0.103733 24.2358 0.167116C24.3118 0.229822 24.3746 0.307038 24.4204 0.394257C24.4662 0.481477 24.4943 0.576954 24.5028 0.675116C24.5121 0.773238 24.5018 0.872234 24.4724 0.966323C24.4431 1.06041 24.3953 1.14771 24.3318 1.22312L13.5398 14.1751C13.3276 14.4319 13.0611 14.6385 12.7596 14.7801C12.4581 14.9217 12.1289 14.9948 11.7958 14.9941Z" fill="#4F9E52"/>
<path d="M11.7529 23.97C9.67087 23.97 7.63287 23.389 5.85687 22.291C0.58787 19.03 -1.04513 12.091 2.21487 6.82198C4.27687 3.48998 7.85587 1.50098 11.7879 1.50098C13.8699 1.50098 15.9079 2.08198 17.6829 3.17998C17.7666 3.23185 17.8393 3.2997 17.8968 3.37966C17.9543 3.45962 17.9954 3.55013 18.018 3.646C18.0405 3.74188 18.0439 3.84125 18.028 3.93845C18.0121 4.03564 17.9772 4.12876 17.9254 4.21248C17.8735 4.29619 17.8056 4.36888 17.7257 4.42637C17.6457 4.48386 17.5552 4.52505 17.4593 4.54756C17.3635 4.57008 17.2641 4.5735 17.1669 4.55761C17.0697 4.54172 16.9766 4.50685 16.8929 4.45498C15.3588 3.50498 13.5903 3.00146 11.7859 3.00098C8.37787 3.00098 5.27587 4.72498 3.48987 7.61098C0.66487 12.176 2.07987 18.189 6.64587 21.015C8.17966 21.9657 9.94831 22.4696 11.7529 22.47C15.1609 22.47 18.2629 20.746 20.0499 17.859C20.8956 16.4957 21.3906 14.9443 21.4908 13.3432C21.5909 11.742 21.2931 10.141 20.6239 8.68298C20.5823 8.59343 20.559 8.49653 20.5551 8.3979C20.5512 8.29926 20.567 8.20084 20.6014 8.10832C20.6358 8.0158 20.6882 7.93101 20.7556 7.85886C20.8229 7.78671 20.9039 7.72863 20.9939 7.68798C21.1747 7.60524 21.3811 7.59773 21.5675 7.66712C21.7539 7.73651 21.9051 7.8771 21.9879 8.05798C22.7602 9.74064 23.104 11.5884 22.9885 13.4362C22.873 15.2841 22.3018 17.0746 21.3259 18.648C19.2639 21.98 15.6859 23.97 11.7529 23.97Z" fill="#4F9E52"/>
</g>
<defs>
<clipPath id="clip0_1_40781">
<rect width="24" height="24" fill="white" transform="translate(0.5)"/>
</clipPath>
</defs>
</svg>
