<svg width="16" height="10" viewBox="0 0 16 10" fill="none" xmlns="http://www.w3.org/2000/svg">
<path d="M8.00065 7.66634C6.52998 7.66634 5.33398 6.47034 5.33398 4.99967C5.33398 3.52901 6.52998 2.33301 8.00065 2.33301C9.47132 2.33301 10.6673 3.52901 10.6673 4.99967C10.6673 6.47034 9.47065 7.66634 8.00065 7.66634ZM8.00065 2.99967C6.89798 2.99967 6.00065 3.89701 6.00065 4.99967C6.00065 6.10234 6.89798 6.99967 8.00065 6.99967C9.10332 6.99967 10.0007 6.10234 10.0007 4.99967C10.0007 3.89701 9.10332 2.99967 8.00065 2.99967Z" fill="#5B5C60"/>
<path d="M8.00066 9.66634C4.18733 9.66634 1.04 6.43034 0.166664 5.43834C0.0612891 5.31669 0.00317525 5.1612 0.00293046 5.00026C0.00268568 4.83931 0.0603263 4.68365 0.165331 4.56168C1.03933 3.56967 4.18733 0.333008 8.00066 0.333008C11.81 0.333008 14.9553 3.56301 15.832 4.55767L15.836 4.56234C16.0527 4.81167 16.0527 5.18767 15.836 5.43701C14.9613 6.42967 11.8133 9.66634 8.00066 9.66634ZM8.00066 0.999674C4.46733 0.999674 1.49333 4.06234 0.666664 5.00167C1.494 5.93701 4.46666 8.99967 8.00066 8.99967C11.534 8.99967 14.5073 5.93701 15.3347 4.99767C14.5067 4.06234 11.5333 0.999674 8.00066 0.999674Z" fill="#5B5C60"/>
</svg>
