<svg width="16" height="16" viewBox="0 0 16 16" fill="none" xmlns="http://www.w3.org/2000/svg">
<g clip-path="url(#clip0_1_64291)">
<path d="M1.66667 13.6361C1.2248 13.6355 0.801189 13.4598 0.488743 13.1473C0.176297 12.8349 0.000532412 12.4113 3.1259e-06 11.9694V3.9694C-0.000423684 3.7499 0.0428611 3.53252 0.127333 3.32992C0.211804 3.12733 0.335771 2.94358 0.492003 2.7894C0.646104 2.63492 0.829204 2.51241 1.03079 2.42889C1.23237 2.34537 1.44847 2.3025 1.66667 2.30274H14.3333C14.5579 2.30237 14.7802 2.34768 14.9868 2.43593C15.1933 2.52418 15.3797 2.65351 15.5347 2.81607C15.8327 3.1234 16 3.53474 16 3.9694V11.9694C16 12.8881 15.252 13.6361 14.3333 13.6361H1.66667ZM0.784003 3.50207C0.70653 3.64562 0.666194 3.80628 0.66667 3.9694V11.9694C0.66667 12.5207 1.11534 12.9694 1.66667 12.9694H14.3333C14.8847 12.9694 15.3333 12.5207 15.3333 11.9694V3.9694C15.3333 3.80407 15.2933 3.6454 15.216 3.50207L8.21067 9.22807C8.15123 9.2767 8.0768 9.30328 8 9.30328C7.92321 9.30328 7.84877 9.2767 7.78934 9.22807L0.784003 3.50207ZM8 8.53874L14.7187 3.0474C14.5968 2.99583 14.4657 2.96931 14.3333 2.9694H1.66667C1.53334 2.9694 1.40267 2.99607 1.28134 3.0474L8 8.53874Z" fill="#5B5C60"/>
</g>
<defs>
<clipPath id="clip0_1_64291">
<rect width="16" height="16" fill="white"/>
</clipPath>
</defs>
</svg>
