<svg width="12" height="16" viewBox="0 0 12 16" fill="none" xmlns="http://www.w3.org/2000/svg">
<path d="M3.66699 9.33301C3.94313 9.33301 4.16699 9.10915 4.16699 8.83301C4.16699 8.55687 3.94313 8.33301 3.66699 8.33301C3.39085 8.33301 3.16699 8.55687 3.16699 8.83301C3.16699 9.10915 3.39085 9.33301 3.66699 9.33301Z" fill="#5B5C60"/>
<path d="M6 9.33301C6.27614 9.33301 6.5 9.10915 6.5 8.83301C6.5 8.55687 6.27614 8.33301 6 8.33301C5.72386 8.33301 5.5 8.55687 5.5 8.83301C5.5 9.10915 5.72386 9.33301 6 9.33301Z" fill="#5B5C60"/>
<path d="M8.33301 9.33301C8.60915 9.33301 8.83301 9.10915 8.83301 8.83301C8.83301 8.55687 8.60915 8.33301 8.33301 8.33301C8.05687 8.33301 7.83301 8.55687 7.83301 8.83301C7.83301 9.10915 8.05687 9.33301 8.33301 9.33301Z" fill="#5B5C60"/>
<path d="M3.66699 11.667C3.94313 11.667 4.16699 11.4431 4.16699 11.167C4.16699 10.8908 3.94313 10.667 3.66699 10.667C3.39085 10.667 3.16699 10.8908 3.16699 11.167C3.16699 11.4431 3.39085 11.667 3.66699 11.667Z" fill="#5B5C60"/>
<path d="M6 11.667C6.27614 11.667 6.5 11.4431 6.5 11.167C6.5 10.8908 6.27614 10.667 6 10.667C5.72386 10.667 5.5 10.8908 5.5 11.167C5.5 11.4431 5.72386 11.667 6 11.667Z" fill="#5B5C60"/>
<path d="M8.33301 11.667C8.60915 11.667 8.83301 11.4431 8.83301 11.167C8.83301 10.8908 8.60915 10.667 8.33301 10.667C8.05687 10.667 7.83301 10.8908 7.83301 11.167C7.83301 11.4431 8.05687 11.667 8.33301 11.667Z" fill="#5B5C60"/>
<path d="M3.66699 14C3.94313 14 4.16699 13.7761 4.16699 13.5C4.16699 13.2239 3.94313 13 3.66699 13C3.39085 13 3.16699 13.2239 3.16699 13.5C3.16699 13.7761 3.39085 14 3.66699 14Z" fill="#5B5C60"/>
<path d="M6 14C5.86739 14 5.74022 13.9473 5.64645 13.8536C5.55268 13.7598 5.5 13.6326 5.5 13.5C5.49983 13.4343 5.51264 13.3692 5.5377 13.3085C5.56277 13.2477 5.59959 13.1925 5.64606 13.1461C5.69252 13.0996 5.74771 13.0628 5.80845 13.0377C5.86919 13.0126 5.93429 12.9998 6 13L6.038 13.0027C6.16458 13.0154 6.28153 13.0759 6.36504 13.1719C6.44856 13.2679 6.49235 13.3921 6.48751 13.5192C6.48266 13.6463 6.42955 13.7668 6.33897 13.8561C6.2484 13.9455 6.12718 13.9969 6 14Z" fill="#5B5C60"/>
<path d="M8.33301 14C8.60915 14 8.83301 13.7761 8.83301 13.5C8.83301 13.2239 8.60915 13 8.33301 13C8.05687 13 7.83301 13.2239 7.83301 13.5C7.83301 13.7761 8.05687 14 8.33301 14Z" fill="#5B5C60"/>
<path d="M1 16C0.448667 16 0 15.5513 0 15V7C0 6.44867 0.448667 6 1 6H2V4C2 1.79467 3.79467 0 6 0C8.20533 0 10 1.79467 10 4V6H11C11.5513 6 12 6.44867 12 7V15C12 15.5513 11.5513 16 11 16H1ZM1 6.66667C0.911595 6.66667 0.82681 6.70179 0.764298 6.7643C0.701786 6.82681 0.666667 6.91159 0.666667 7V15C0.666667 15.0884 0.701786 15.1732 0.764298 15.2357C0.82681 15.2982 0.911595 15.3333 1 15.3333H11C11.0884 15.3333 11.1732 15.2982 11.2357 15.2357C11.2982 15.1732 11.3333 15.0884 11.3333 15V7C11.3333 6.91159 11.2982 6.82681 11.2357 6.7643C11.1732 6.70179 11.0884 6.66667 11 6.66667H1ZM9.33333 6V4C9.33333 2.162 7.838 0.666667 6 0.666667C4.162 0.666667 2.66667 2.162 2.66667 4V6H9.33333Z" fill="#5B5C60"/>
</svg>
