<svg width="16" height="16" viewBox="0 0 16 16" fill="none" xmlns="http://www.w3.org/2000/svg">
<path d="M7.99897 12.6655C7.28743 12.6615 6.58041 12.5521 5.90097 12.3408C5.81903 12.3127 5.75125 12.2538 5.71198 12.1766C5.67272 12.0994 5.66506 12.0099 5.69063 11.9271C5.7162 11.8444 5.77298 11.7748 5.84895 11.7332C5.92492 11.6916 6.01412 11.6811 6.09763 11.7042C6.71424 11.896 7.35589 11.9953 8.00163 11.9988C11.4923 11.9988 14.4636 8.87682 15.229 8.00015C14.5109 7.17577 13.7015 6.43568 12.8163 5.79415C12.7808 5.76858 12.7507 5.73619 12.7278 5.69888C12.7049 5.66157 12.6897 5.62008 12.683 5.57682C12.6732 5.51189 12.6828 5.44553 12.7104 5.38599C12.7381 5.32646 12.7827 5.27637 12.8386 5.24198C12.8945 5.20758 12.9593 5.1904 13.0249 5.19256C13.0906 5.19473 13.1541 5.21615 13.2076 5.25415C14.2132 5.98307 15.1251 6.83302 15.923 7.78482C15.9718 7.84373 15.999 7.91757 16.0001 7.99409C16.0012 8.07061 15.9761 8.14521 15.929 8.20548C15.8923 8.25148 15.0216 9.33882 13.627 10.4282C12.319 11.4488 10.2816 12.6655 7.99963 12.6655H7.99897Z" fill="#5B5C60"/>
<path d="M2.97815 10.7997C2.90776 10.7998 2.83915 10.7776 2.78215 10.7363C1.78042 10.01 0.872023 9.16291 0.0774786 8.21434C0.0284591 8.15538 0.00112581 8.0814 3.40208e-05 8.00473C-0.00105777 7.92807 0.0241579 7.85334 0.0714786 7.79301C0.107479 7.74767 0.968145 6.66767 2.37281 5.57101C3.68015 4.54967 5.71681 3.33301 7.99948 3.33301C8.59015 3.33567 9.17948 3.41234 9.75015 3.56034C9.83272 3.5852 9.90245 3.6411 9.94468 3.7163C9.98691 3.79149 9.99835 3.88013 9.97661 3.96358C9.95486 4.04703 9.90161 4.11881 9.82806 4.16383C9.7545 4.20885 9.66636 4.22361 9.58215 4.20501C9.06475 4.0709 8.53263 4.00192 7.99815 3.99967C4.50681 3.99967 1.53615 7.12101 0.770145 7.99834C1.48588 8.81922 2.29211 9.55657 3.17348 10.1963C3.2314 10.2372 3.27474 10.2955 3.29715 10.3627C3.31957 10.4299 3.31988 10.5025 3.29806 10.57C3.27623 10.6374 3.2334 10.696 3.17584 10.7374C3.11828 10.7787 3.049 10.8005 2.97815 10.7997Z" fill="#5B5C60"/>
<path d="M5.33236 8.33236C5.24395 8.33236 5.15917 8.29724 5.09665 8.23473C5.03414 8.17221 4.99902 8.08743 4.99902 7.99902C4.99902 6.34502 6.34502 4.99902 7.99902 4.99902C8.08743 4.99902 8.17221 5.03414 8.23473 5.09665C8.29724 5.15917 8.33236 5.24395 8.33236 5.33236C8.33236 5.42076 8.29724 5.50555 8.23473 5.56806C8.17221 5.63057 8.08743 5.66569 7.99902 5.66569C6.71236 5.66569 5.66569 6.71236 5.66569 7.99902C5.66569 8.08743 5.63057 8.17221 5.56806 8.23473C5.50555 8.29724 5.42076 8.33236 5.33236 8.33236Z" fill="#5B5C60"/>
<path d="M7.99935 10.9993C7.91094 10.9993 7.82616 10.9642 7.76365 10.9017C7.70113 10.8392 7.66602 10.7544 7.66602 10.666C7.66602 10.5776 7.70113 10.4928 7.76365 10.4303C7.82616 10.3678 7.91094 10.3327 7.99935 10.3327C9.28602 10.3327 10.3327 9.28602 10.3327 7.99935C10.3327 7.91094 10.3678 7.82616 10.4303 7.76365C10.4928 7.70113 10.5776 7.66602 10.666 7.66602C10.7544 7.66602 10.8392 7.70113 10.9017 7.76365C10.9642 7.82616 10.9993 7.91094 10.9993 7.99935C10.9993 9.65335 9.65335 10.9993 7.99935 10.9993Z" fill="#5B5C60"/>
<path d="M1.49928 14.8325C1.4334 14.8325 1.36901 14.813 1.31422 14.7764C1.25944 14.7398 1.21673 14.6878 1.19148 14.627C1.16622 14.5661 1.15957 14.4992 1.17235 14.4345C1.18513 14.3699 1.21677 14.3105 1.26328 14.2639L14.2633 1.26387C14.2942 1.23288 14.331 1.20828 14.3714 1.19149C14.4119 1.1747 14.4552 1.16605 14.499 1.16602C14.5428 1.16598 14.5862 1.17458 14.6267 1.19131C14.6672 1.20805 14.704 1.23259 14.7349 1.26353C14.7659 1.29448 14.7905 1.33123 14.8073 1.37168C14.8241 1.41214 14.8328 1.4555 14.8328 1.4993C14.8328 1.5431 14.8242 1.58647 14.8075 1.62695C14.7908 1.66742 14.7662 1.70421 14.7353 1.7352L1.73528 14.7352C1.6726 14.7976 1.58773 14.8326 1.49928 14.8325Z" fill="#5B5C60"/>
</svg>
