<svg width="48" height="23" viewBox="0 0 48 23" fill="none" xmlns="http://www.w3.org/2000/svg">
<path d="M0.66 19.05C1.16 19.71 1.88 20.12 3.01 20.12C4.35 20.12 5.38 19.28 5.38 17.92C5.38 16.55 4.37 15.79 3.26 15.79C2.59 15.79 2.02 16.07 1.7 16.39V14.07H4.95V13.33H0.87V16.93L1.48 17.14C1.93 16.7 2.43 16.51 3.02 16.51C3.92 16.51 4.55 17.07 4.55 17.95C4.55 18.76 3.92 19.38 3.01 19.38C2.19 19.38 1.61 19.06 1.17 18.5L0.66 19.05ZM5.89844 20.2H6.48844L8.85844 13.13H8.26844L5.89844 20.2ZM10.6374 20H11.4674V13.33H10.7374L9.06742 15.05L9.56742 15.56L10.6374 14.43V20ZM12.7861 20H17.3661V19.26H14.0961C15.9561 17.79 17.3361 16.55 17.3361 15.19C17.3361 13.86 16.2061 13.23 15.0961 13.23C14.1561 13.23 13.2861 13.61 12.7761 14.28L13.2861 14.81C13.6761 14.31 14.2961 13.97 15.0961 13.97C15.7861 13.97 16.4861 14.34 16.4861 15.19C16.4861 16.34 15.1861 17.45 12.7861 19.34V20Z" fill="#5B5C60"/>
<rect width="48" height="7" rx="3.5" fill="#EEF0F3"/>
<rect width="19" height="7" rx="3.5" fill="#5B5C60"/>
</svg>
