<svg width="82" height="39" viewBox="0 0 82 39" fill="none" xmlns="http://www.w3.org/2000/svg">
<path d="M75.4266 15.3183C75.4266 14.2132 75.4678 13.5241 75.7933 12.8617C76.7417 12.9768 78.5729 13.2085 79.6743 12.9021C81.6454 12.3382 81.7679 10.0204 81.744 8.69211C80.6299 8.60578 79.2609 8.62951 77.8797 8.83195C74.1446 9.35448 71.3869 12.0524 71.3869 16.4502V30.0682H75.4266V19.7111H78.1915C80.0934 19.7111 80.3603 18.406 80.3603 16.4689H75.4266V15.3183ZM64.6723 23.2395C64.6723 22.0278 64.6723 20.8172 64.9591 20.071C65.8251 20.1775 67.1285 20.2709 67.9177 20.0342C69.9081 19.4379 69.8887 17.208 69.8887 15.9231C68.7507 15.8444 67.6782 15.8969 66.4562 16.0842C63.0424 16.6032 60.63 19.1916 60.63 23.5838V30.0682H64.6723V23.2395ZM54.1534 26.5811C50.8658 27.4318 48.5494 25.7012 48.5494 22.508V19.7111C49.2598 19.2855 50.0114 19.0118 51.1241 19.0118C55.025 19.0118 55.799 23.1183 54.1534 26.5811ZM52.2642 15.6833C50.8022 15.6833 49.4475 16.2301 48.5494 16.789V8.72897C46.9526 8.7118 45.2237 9.47464 44.4873 10.1193V22.4544C44.4873 27.4873 47.6783 30.1191 51.7003 30.1191C55.6957 30.1191 58.9813 26.8603 58.9813 22.4938C58.9813 18.9255 56.4723 15.6833 52.2642 15.6833Z" fill="white"/>
<path d="M36.4479 24.836C34.4961 23.5718 32.8465 21.5362 31.5055 19.1124C33.5253 18.2602 35.3627 17.1627 36.9569 15.8445C37.5544 18.752 37.4273 21.8401 36.4479 24.836ZM26.6475 35.5994C24.1751 33.7163 21.9391 31.5596 19.966 29.1701C21.9121 29.4816 23.8669 29.6295 25.7642 29.6295C29.0996 29.6295 32.2632 29.1499 34.936 28.2165C33.0214 31.5056 30.0948 34.0879 26.6475 35.5994ZM13.976 36.2431C15.467 34.2071 16.8482 31.9322 18.1012 29.5215C20.0712 32.0241 22.3159 34.2994 24.8082 36.2876C23.1071 36.8167 21.3075 37.11 19.4651 37.11C17.5988 37.11 15.761 36.8151 13.976 36.2431ZM3.26341 26.8064C4.70406 26.5146 6.22812 25.8502 7.77658 24.8506C8.50785 28.1241 9.46591 31.4117 10.6594 34.7942C7.34789 32.9283 4.80221 30.1021 3.26341 26.8064ZM1.61324 19.1119C2.94558 21.0162 4.70406 22.7211 6.85208 24.1978C5.46126 25.05 4.10705 25.5968 2.8398 25.8083C2.0104 23.693 1.5812 21.4272 1.61324 19.1119ZM5.96674 7.79762C5.95352 10.5935 6.07709 13.3212 6.34915 16.0232C4.99952 15.2518 3.76125 14.3728 2.6664 13.3813C2.67199 13.3581 2.68012 13.3354 2.68877 13.3152C3.448 11.2523 4.56574 9.39498 5.96674 7.79762ZM21.1244 1.73029C20.9052 3.82038 20.2055 6.24671 19.1025 8.76947C16.003 7.51188 13.2341 5.85696 10.901 3.84007C13.4797 2.43304 16.4058 1.65102 19.4651 1.65102C20.0255 1.65102 20.5762 1.67728 21.1244 1.73029ZM26.2315 2.97475C26.2763 5.43743 26.6379 8.22322 27.3061 11.0252C26.3277 10.8656 25.3737 10.6662 24.4283 10.4461C24.8839 7.74714 25.1184 5.09817 25.1341 2.57541C25.2796 2.62287 25.4316 2.66881 25.5694 2.72182C25.7957 2.80562 26.0124 2.88792 26.2315 2.97475ZM35.4954 11.5977C33.0819 11.633 30.7295 11.5043 28.4772 11.1978C27.7958 8.51603 27.4108 5.82364 27.3178 3.46042C30.9842 5.23498 33.8025 8.15304 35.4954 11.5977ZM28.7721 12.3034C30.7051 12.5433 32.7 12.6659 34.7417 12.6659C35.146 12.6659 35.5625 12.6624 35.9775 12.6498C36.16 13.1026 36.3329 13.5696 36.4814 14.0407C34.8653 15.5108 32.9217 16.7159 30.7452 17.6271C29.9585 15.944 29.301 14.1335 28.7721 12.3034ZM14.5817 20.7083C16.2985 21.0294 18.0697 21.2141 19.8724 21.2434C19.2479 22.972 18.5594 24.6623 17.8124 26.2884C16.6 24.531 15.5204 22.6666 14.5817 20.7083ZM11.7502 20.0565C10.6716 21.2151 9.57321 22.2158 8.48852 23.0543C8.18595 21.5751 7.94287 20.0833 7.73031 18.5929C9.01027 19.1654 10.3584 19.6642 11.7502 20.0565ZM15.9756 26.5671C15.5153 26.4333 15.0582 26.2884 14.6086 26.1299C12.6635 25.4766 10.8944 24.6769 9.29911 23.7581C10.4311 22.8791 11.5646 21.827 12.6712 20.6169C13.6292 22.6933 14.7358 24.6769 15.9756 26.5671ZM14.5812 16.6159C14.1998 17.1349 13.8179 17.6342 13.4284 18.1073C11.7319 13.9271 10.6269 9.39094 10.1967 4.63875C12.6045 6.72885 15.467 8.43929 18.6723 9.73727C17.5871 12.044 16.1973 14.4011 14.5812 16.6159ZM22.6195 11.0782C22.1094 13.9074 21.3792 16.7699 20.4481 19.5789C18.2894 19.5779 16.1703 19.3512 14.1459 18.9256C14.5817 18.3804 15.0104 17.821 15.4467 17.2414C17.1147 14.9585 18.5502 12.517 19.669 10.12C20.625 10.4759 21.6136 10.7924 22.6195 11.0782ZM24.2539 11.4942C25.335 11.7511 26.4573 11.9642 27.5944 12.1399C28.1416 14.1669 28.8525 16.1631 29.7246 18.0204C27.424 18.8524 24.8839 19.3719 22.2172 19.5254C23.0716 16.8688 23.7576 14.1669 24.2539 11.4942ZM22.801 10.0271C21.8821 9.76403 20.9769 9.47071 20.0997 9.15114C21.2251 6.55518 21.9492 4.03949 22.1832 1.86054C22.6113 1.92314 23.0349 2.00947 23.4514 2.10287C23.4707 4.63168 23.2439 7.30085 22.801 10.0271ZM7.05244 6.65261C7.53402 6.1937 8.03848 5.76306 8.57497 5.34454C9.04231 9.89428 10.1016 14.2481 11.6922 18.2935C10.2109 17.8538 8.80279 17.2944 7.48876 16.6356C7.13279 13.3682 6.98582 10.0634 7.05244 6.65261ZM7.27772 22.4414C4.87595 20.6972 3.0422 18.6131 1.88835 16.2837C1.95547 15.9041 2.03328 15.5179 2.13448 15.1316C3.4658 16.2307 4.94765 17.2157 6.58205 18.0406C6.77072 19.5118 7.00566 20.9768 7.27772 22.4414ZM12.3426 35.6262C12.2415 35.5914 12.1413 35.5394 12.0518 35.4975C10.8008 32.0922 9.80103 28.791 9.02909 25.5286C10.5659 26.3672 12.242 27.1002 14.0655 27.7126C14.9438 28.0165 15.8352 28.272 16.7404 28.4982C15.4197 31.0926 13.9425 33.5008 12.3426 35.6262ZM36.039 25.9557C31.7282 28.0438 25.3777 28.5355 19.1732 27.339C20.0921 25.357 20.9251 23.3067 21.6477 21.2283C24.798 21.1096 27.7887 20.524 30.4884 19.5188C31.9657 22.2158 33.8361 24.4896 36.0787 25.8608C36.0654 25.8886 36.0588 25.9274 36.039 25.9557ZM26.1151 1.22392C23.9742 0.447956 21.7326 0.0592155 19.4651 0.0592155C11.3169 0.0592155 3.96873 5.16481 1.18505 12.7689C-2.48448 22.7857 2.7264 33.8875 12.812 37.53C14.9585 38.307 17.2021 38.6982 19.4651 38.6982C27.6102 38.6982 34.9599 33.5896 37.7487 25.9936C41.4157 15.9707 36.2002 4.86543 26.1151 1.22392Z" fill="white"/>
</svg>
