<svg width="122" height="58" viewBox="0 0 122 58" fill="none" xmlns="http://www.w3.org/2000/svg">
<path d="M28.6611 41.0931C34.2956 39.0384 39.5748 36.1181 44.3085 32.4377C40.0794 30.7999 36.0897 28.6018 32.4466 25.9023C31.4732 31.0332 30.2098 36.1049 28.6625 41.0931" fill="#E63329"/>
<path d="M46.5114 21.2179C44.0912 18.6027 42.2086 15.5381 40.9704 12.198C38.7787 11.9742 36.6105 11.5613 34.4901 10.9639C34.102 15.978 33.4252 20.9657 32.4629 25.9021C37.3911 25.2038 42.1513 23.6167 46.5114 21.2179Z" fill="#F39121"/>
<path d="M32.4629 25.9005C36.0985 28.6117 40.0898 30.8108 44.3247 32.4359C47.0338 30.3028 49.4832 27.8597 51.6227 25.1565C49.7172 24.1189 47.9903 22.7832 46.5074 21.2002C42.1522 23.6101 37.3922 25.2032 32.4629 25.9005Z" fill="#EC6624"/>
<path d="M32.4614 25.9025C29.6849 23.8434 27.1222 21.511 24.8121 18.9404C23.0057 21.2459 20.9912 23.3807 18.7939 25.3178C23.2777 26.3308 27.9073 26.5293 32.4614 25.9039" fill="#E95028"/>
<path d="M22.0724 57.1533C28.4262 58.7229 35.1246 58.0985 41.0781 55.3817C37.8732 55.0476 34.7061 54.4171 31.6178 53.498C28.5507 54.9998 25.3547 56.2231 22.0684 57.1533" fill="#234295"/>
<path d="M13.5371 44.9697C15.4838 49.5907 18.3937 53.7441 22.073 57.1533C23.1556 55.2023 24.1337 53.1952 25.003 51.1405C20.9915 49.4563 17.1518 47.3898 13.5371 44.9697Z" fill="#234295"/>
<path d="M22.0732 57.1534C25.3557 56.2261 28.547 55.0027 31.6079 53.4982C29.362 52.8424 27.1566 52.0551 25.0032 51.1406C24.1404 53.1983 23.1622 55.2058 22.0732 57.1534Z" fill="#0A66B0"/>
<path d="M28.6611 41.0928C31.2783 44.418 34.2346 47.4621 37.4822 50.1761C41.3451 47.6846 44.9014 44.7478 48.0777 41.4263C41.6771 42.9173 35.0067 42.8028 28.6611 41.0928Z" fill="#7C2F88"/>
<path d="M9.43359 31.4082C10.2569 36.0805 11.6338 40.6382 13.5353 44.9853C18.699 44.2272 23.7684 42.9278 28.6596 41.1087C21.6129 39.3326 15.0471 36.0199 9.43359 31.4082Z" fill="#7C2F88"/>
<path d="M28.661 41.0982C24.8002 36.2076 21.4861 30.91 18.7777 25.2998C15.9908 27.793 12.8399 29.8475 9.43359 31.3923C15.0392 36.018 21.6083 39.3341 28.661 41.0982Z" fill="#B92A2E"/>
<path d="M8.38867 21.2021C8.47229 24.6263 8.82157 28.0388 9.43336 31.409C12.8397 29.8641 15.9905 27.8097 18.7774 25.3165C15.1285 24.4703 11.6269 23.0835 8.38867 21.2021Z" fill="#E32127"/>
<path d="M32.4614 25.9007C27.9068 26.5293 23.2757 26.3256 18.7939 25.2998C21.506 30.908 24.8199 36.2052 28.6773 41.0982C30.2118 36.1042 31.475 31.0309 32.4614 25.9007Z" fill="#D12429"/>
<path d="M44.3086 32.4376C47.2653 33.577 50.3332 34.4042 53.4621 34.9059C55.1904 32.4717 56.706 29.8935 57.9922 27.1998C55.7555 26.9204 53.5902 26.2281 51.6066 25.1582C49.4796 27.8725 47.0288 30.3171 44.3086 32.4376Z" fill="#EF7824"/>
<path d="M9.43381 31.4067C6.09482 28.6704 3.22253 25.4108 0.929005 21.7549C-0.046259 25.5096 -0.256292 29.4219 0.311382 33.2593C3.45529 33.364 6.57989 32.7299 9.43381 31.4081" fill="#8A2E88"/>
<path d="M9.43352 31.4084C8.82173 28.0383 8.47246 24.6258 8.38883 21.2016C6.32647 20.0044 4.38483 18.6107 2.59102 17.04C2.28964 17.7044 2.00448 18.3903 1.75176 19.0817C1.43197 19.9583 1.15727 20.8506 0.928711 21.7552C3.22645 25.408 6.09818 28.667 9.43352 31.4071" fill="#C8262B"/>
<path d="M0.311523 33.2598C0.979844 37.7494 2.6925 42.0198 5.31197 45.7283C8.06357 45.6333 10.8077 45.3849 13.5316 44.9843C8.58907 41.7244 4.13749 37.7764 0.311523 33.2598Z" fill="#0B55A3"/>
<path d="M9.43396 31.4082C6.58005 32.7301 3.45543 33.3642 0.311523 33.2594C4.1386 37.7769 8.59157 41.7254 13.5357 44.9853C11.6342 40.6382 10.2573 36.0805 9.43396 31.4082Z" fill="#2B3B8F"/>
<path d="M22.0739 57.1533C18.3912 53.7471 15.4807 49.5929 13.538 44.9697C10.815 45.3775 8.07041 45.6259 5.31836 45.7137C8.7269 50.5485 13.5386 54.2215 19.1034 56.2365C20.0733 56.6071 21.0665 56.9138 22.0766 57.1547" fill="#0A66B0"/>
<path d="M31.6221 53.4979C34.7126 54.4078 37.8788 55.0382 41.0824 55.3815C41.8743 55.0169 42.6663 54.6213 43.4258 54.1784C41.3271 53.0373 39.3434 51.6965 37.5023 50.1748C35.6085 51.3934 33.6466 52.5029 31.6261 53.4979" fill="#0B55A3"/>
<path d="M48.0938 41.4244C51.2268 40.6506 54.1831 39.2862 56.804 37.4046C57.0094 36.7079 57.1999 36.0274 57.3581 35.332C56.0593 35.2523 54.7605 35.1105 53.478 34.9053C51.8462 37.2077 50.0466 39.3867 48.0938 41.4244Z" fill="#E44025"/>
<path d="M57.993 27.1992C56.7068 29.8929 55.1911 32.471 53.4629 34.9053C54.7454 35.1105 56.0442 35.2537 57.343 35.332C57.9508 32.6665 58.1693 29.9272 57.9916 27.1992" fill="#F39121"/>
<path d="M37.4824 50.1765C39.3235 51.6982 41.3072 53.0389 43.4059 54.1801C49.3808 50.7842 53.9465 45.3693 56.2814 38.9097C56.472 38.4033 56.6301 37.897 56.7882 37.3906C54.1673 39.2723 51.211 40.6366 48.078 41.4104C44.9139 44.7498 41.3561 47.6933 37.4824 50.1765Z" fill="#9D2B4F"/>
<path d="M34.4736 10.9639C36.5932 11.5611 38.7605 11.9741 40.9512 12.1981C39.6534 8.82762 38.8998 5.27256 38.7186 1.66583C37.4062 1.1996 36.0615 0.829538 34.6953 0.558594C34.8242 4.03063 34.7501 7.50722 34.4736 10.9706" fill="#F8AD1C"/>
<path d="M34.4739 10.9635C34.7425 7.49973 34.8165 4.02359 34.6956 0.551499C33.9982 0.409719 33.3022 0.297645 32.5886 0.203125C32.5015 3.40364 31.7803 6.55516 30.4668 9.47553C31.7621 10.0732 33.1019 10.5698 34.4739 10.9608" fill="#F59C20"/>
<path d="M8.38937 21.2017C11.628 23.0832 15.1301 24.4699 18.7795 25.316C15.596 19.0016 13.4516 12.2158 12.4289 5.21973C11.5355 5.84025 10.6782 6.51108 9.86112 7.22895C8.71694 11.7945 8.22105 16.4982 8.38802 21.2017" fill="#E95028"/>
<path d="M24.7964 18.9404C20.6916 14.4106 17.536 9.10551 15.5159 3.33789C14.4508 3.89949 13.4197 4.52305 12.4277 5.20533C13.4486 12.202 15.5935 18.9881 18.7796 25.3016C20.9767 23.3701 22.9912 21.2407 24.7978 18.9404" fill="#ED7025"/>
<path d="M30.467 9.49374C26.3483 7.54783 22.6058 4.89064 19.4119 1.64453C18.0765 2.12066 16.7748 2.68637 15.5156 3.33779C17.5318 9.10722 20.694 14.4101 24.8124 18.9282C27.0996 16.0437 29.0005 12.8735 30.467 9.49779" fill="#F39121"/>
<path d="M40.9512 12.1982C42.1954 15.5354 44.0774 18.5989 46.4922 21.2181C49.4212 19.6072 52.1757 17.6981 54.7119 15.5213C54.1375 14.4339 53.4975 13.3823 52.7955 12.3724C48.8489 12.6236 44.8887 12.5654 40.9512 12.1982Z" fill="#F08225"/>
<path d="M51.6296 25.1727C53.3209 23.0411 54.7856 20.7396 56.0003 18.3052C55.6212 17.3551 55.1931 16.4253 54.7177 15.5195C52.1923 17.7102 49.4363 19.6203 46.498 21.2164C47.9879 22.8002 49.7217 24.1359 51.6337 25.1727" fill="#F39121"/>
<path d="M57.9918 27.2029C57.8011 24.1457 57.1275 21.1378 55.9957 18.291C54.7731 20.7209 53.3088 23.0217 51.625 25.1586C53.5981 26.2372 55.7589 26.9301 57.9918 27.2002" fill="#EC6624"/>
<path d="M32.4618 25.9009C33.4262 20.9648 34.103 15.977 34.489 10.9626C33.1219 10.5693 31.785 10.0779 30.4887 9.49219C29.0207 12.8718 27.1121 16.0427 24.8125 18.9226C27.1144 21.5062 29.6778 23.8448 32.4618 25.9009Z" fill="#F08225"/>
<path d="M28.6614 41.0932C27.6165 44.5032 26.3954 47.8569 25.0029 51.1406C27.1617 52.0412 29.3663 52.8282 31.6076 53.4982C33.6299 52.5067 35.592 51.3971 37.4838 50.1752C34.2286 47.4692 31.2716 44.4242 28.6627 41.0918" fill="#234295"/>
<path d="M28.6614 41.0928C23.7702 42.9119 18.7008 44.2113 13.5371 44.9694C17.1535 47.3868 20.9929 49.4531 25.003 51.1402C26.4024 47.8592 27.6236 44.5052 28.6614 41.0928Z" fill="#942F88"/>
<path d="M28.6611 41.0928C35.0068 42.8026 41.6772 42.9167 48.0777 41.425C50.0268 39.3839 51.8262 37.2052 53.462 34.9058C50.3314 34.4116 47.2628 33.5841 44.3085 32.4375C39.577 36.1212 34.2973 39.0418 28.6611 41.0928Z" fill="#D12429"/>
<path d="M9.86234 7.23047C6.76474 9.94377 4.28577 13.2894 2.59277 17.0416C4.38615 18.6123 6.32734 20.0059 8.38923 21.2032C8.22227 16.4997 8.71816 11.796 9.86234 7.23047Z" fill="#ED7025"/>
<path d="M52.7974 12.3718C49.3881 7.49274 44.5539 3.78469 38.9556 1.75447C38.8789 1.72083 38.7993 1.69417 38.7178 1.6748C38.916 5.2793 39.669 8.83174 40.9504 12.207C44.8896 12.5603 48.8501 12.6131 52.7974 12.365" fill="#FCC112"/>
<path d="M32.5886 0.220973C28.1399 -0.331607 23.6236 0.155591 19.3955 1.64417C22.5953 4.88336 26.3365 7.53963 30.4505 9.49338C31.7762 6.57636 32.5031 3.42346 32.5886 0.220973Z" fill="#FCC112"/>
<path d="M112.568 23.1176C112.462 21.8637 112.647 20.6022 113.109 19.4314C115.019 19.7701 116.972 19.7915 118.889 19.4948C121.835 18.6563 122.025 15.1739 121.998 13.1809C120.074 13.0422 118.141 13.111 116.232 13.3861C110.657 14.1774 106.539 18.2283 106.539 24.8271V45.2718H112.558V29.7151H116.676C119.514 29.7151 119.919 27.7532 119.919 24.842H112.555V23.1176H112.568ZM96.5251 35.0177C96.4208 33.4226 96.5649 31.821 96.9521 30.2701C98.4173 30.5112 99.9138 30.4897 101.371 30.2066C104.345 29.3046 104.301 25.9654 104.301 24.0358C102.592 23.9259 100.876 24.0111 99.1861 24.2897C94.087 25.0648 90.4907 28.9414 90.4907 35.5403V45.2718H96.5089V35.0164L96.5251 35.0177ZM80.8291 40.0381C75.9192 41.3046 72.4662 38.7094 72.4662 33.9307V29.7151C73.6189 28.9959 74.9564 28.6276 76.3152 28.6552C82.1441 28.6552 83.2834 34.826 80.8291 40.0327V40.0381ZM78.0261 23.6713C76.0621 23.7098 74.146 24.2841 72.4851 25.3321V13.2268C70.2954 13.2518 68.1726 13.9846 66.4346 15.3157V33.8267C66.4346 41.3883 71.1863 45.315 77.1882 45.315C78.6588 45.2937 80.1102 44.9789 81.4572 44.3891C82.8041 43.7992 84.0195 42.9462 85.0317 41.8803C86.044 40.8143 86.8327 39.5569 87.3515 38.182C87.8703 36.807 88.1087 35.3423 88.0527 33.874C88.1004 32.5369 87.8751 31.2041 87.3907 29.9568C86.9062 28.7095 86.1726 27.5738 85.2347 26.6188C84.2968 25.6639 83.1741 24.9097 81.935 24.4023C80.6959 23.8948 79.3664 23.6447 78.0275 23.6672" fill="#241F21"/>
</svg>
